<?xml version="1.0" encoding="utf-8"?>
<!-- Generator: Adobe Illustrator 16.0.0, SVG Export Plug-In . SVG Version: 6.00 Build 0)  -->
<!DOCTYPE svg PUBLIC "-//W3C//DTD SVG 1.1//EN" "http://www.w3.org/Graphics/SVG/1.1/DTD/svg11.dtd">
<svg version="1.1" xmlns="http://www.w3.org/2000/svg" xmlns:xlink="http://www.w3.org/1999/xlink" x="0px" y="0px" width="512px"
	 height="512px" viewBox="0 0 512 512" enable-background="new 0 0 512 512" xml:space="preserve">
<g id="Layer_1" display="none">
	<rect x="0.6" width="50" height="512"/>
	<rect x="-96.074" y="231.056" transform="matrix(0.7071 0.7071 -0.7071 0.7071 266.5697 -131.4438)" width="776.051" height="50"/>
	
		<rect y="462" display="inline" stroke="#000000" stroke-width="2.8347" stroke-linecap="round" stroke-linejoin="round" stroke-miterlimit="10" width="256" height="50"/>
	<rect x="256" y="462" width="256" height="50"/>
	
		<polygon display="inline" stroke="#000000" stroke-width="2.8347" stroke-linecap="round" stroke-linejoin="round" stroke-miterlimit="10" points="
		412.54,462 206,462 206,512 462,512 462,511.46 	"/>
	<rect x="0.6" width="511.4" height="50"/>
	
		<polygon display="inline" stroke="#000000" stroke-width="2.8347" stroke-linecap="round" stroke-linejoin="round" stroke-miterlimit="10" points="
		0.6,50.06 0.6,512 50.6,512 50.6,95.177 	"/>
	<polygon points="512,50 512,0 71.251,0 121.251,50 	"/>
	<g display="inline">
		<polygon points="512,50 512,0 71.251,0 121.251,50 		"/>
		<polygon display="none" points="512,440.748 121.251,50 71.251,0 0.6,0 0.6,0.06 50.54,50 512,511.46 		"/>
		<polygon points="71.251,0 0.6,0 0.6,0.06 50.54,50 121.251,50 		"/>
	</g>
</g>
<g id="Layer_2">
	<g>
		<path d="M80.208,436c-2.349,0-4.208-1.864-4.208-4.213V144.373c0-1.68,0.967-3.203,2.502-3.885
			c0.555-0.247,1.132-0.367,1.716-0.367c1.033,0,2.048,0.376,2.845,1.095l47.767,43.312c0.894,0.806,1.171,1.953,1.171,3.157V380
			h188.199c1.128,0,2.209,0.216,3.007,1.013l47.515,47.365c0.797,0.798,1.279,1.763,1.279,2.891v0.519
			c0,2.349-1.972,4.213-4.32,4.213H80.208z"/>
		<path d="M80,144.373l48,43.312V384h192.199L368,431.269V432H80V144 M80.206,135.869c-1.168,0-2.196,0.24-3.306,0.733
			c-3.07,1.365-4.9,4.41-4.9,7.771v287.414c0,4.696,3.512,8.213,8.208,8.213H367.68c4.696,0,8.32-3.517,8.32-8.213v-0.519
			c0-2.255-0.804-4.418-2.398-6.013l-47.435-47.623c-1.596-1.596-3.712-2.633-5.968-2.633H137V187.685
			c0-2.407-1.164-4.701-2.951-6.313L85.978,138.06C84.384,136.622,82.271,135.869,80.206,135.869L80.206,135.869z"/>
	</g>
	<g>
		<path d="M501.713,505.537c-1.106,0-2.194-0.432-3.008-1.245L7.761,13.347c-0.797-0.797-1.245-1.894-1.245-3.022
			C6.516,7.977,8.419,6,10.768,6h490.944C504.061,6,506,7.936,506,10.284v48c0,2.348-1.939,4.717-4.288,4.717H136.858
			l367.878,367.627c0.797,0.798,1.264,1.646,1.264,2.774v67.884c0,1.72-1.055,3.271-2.643,3.929
			C502.832,505.432,502.261,505.537,501.713,505.537z"/>
		<path d="M502,10v48H126.594L502,433.401v67.884L11,10.341V10H502 M501.712,2H10.768C6.071,2,2,5.587,2,10.284v0.057
			c0,2.255,1.027,4.418,2.622,6.013l491.011,490.945c1.627,1.626,3.835,2.49,6.048,2.49c1.096,0,2.109-0.212,3.161-0.647
			c3.178-1.316,5.158-4.417,5.158-7.856v-67.884c0-2.256-0.787-4.312-2.383-5.907L147.124,67h354.588
			c4.696,0,8.288-4.02,8.288-8.717v-48C510,5.587,506.408,2,501.712,2L501.712,2z"/>
	</g>
	<polygon display="none" points="444.238,51.188 500.759,51.188 500.759,51.236 460.807,91.188 404.238,91.188 	"/>
</g>
<g id="Layer_2_copy" display="none">
	<g display="inline">
		<path d="M79.547,433.87c-0.783,0-1.417-0.634-1.417-1.417V119.595c0-0.56,0.329-1.067,0.841-1.295
			c0.186-0.083,0.381-0.123,0.576-0.123c0.344,0,0.684,0.125,0.949,0.365l40,36.093c0.298,0.269,0.468,0.651,0.468,1.052v235.348
			h231.922c0.376,0,0.736,0.149,1.002,0.415l39.567,39.568c0.266,0.266,0.415,0.626,0.415,1.002v0.432
			c0,0.783-0.634,1.417-1.417,1.417H79.547z"/>
		<path d="M79.547,119.595l40,36.093v236.765h233.339l39.567,39.568v0.432H79.547V119.595 M79.546,116.76
			c-0.389,0-0.781,0.08-1.15,0.244c-1.023,0.455-1.684,1.47-1.684,2.59v312.858c0,1.565,1.27,2.835,2.835,2.835h312.906
			c1.565,0,2.835-1.27,2.835-2.835v-0.432c0-0.752-0.299-1.473-0.831-2.004l-39.566-39.568c-0.532-0.532-1.253-0.831-2.005-0.831
			H122.382v-233.93c0-0.802-0.341-1.567-0.936-2.104l-40-36.093C80.915,117.011,80.234,116.76,79.546,116.76L79.546,116.76z"/>
	</g>
	<g display="inline">
		<path d="M460.8,461.785c-0.368,0-0.731-0.144-1.002-0.415L50.678,52.25c-0.266-0.266-0.415-0.626-0.415-1.002
			c0-0.783,0.634-1.465,1.417-1.465h392.376c0.061-0.008,0.121-0.013,0.183-0.013h56.521c0.783,0,1.417,0.635,1.417,1.417
			c0,0.376-0.149,0.785-0.415,1.05c0,0-39.968,39.968-39.977,39.976c-0.255,0.25-0.602,0.404-0.984,0.404H151.623l310.179,310.179
			c0.266,0.266,0.415,0.626,0.415,1.002v56.569c0,0.573-0.345,1.09-0.875,1.31C461.167,461.75,460.982,461.785,460.8,461.785z"/>
		<path d="M500.759,51.188v0.048l-39.952,39.952H460.8V91.2H148.201L460.8,403.799v56.569L91.632,91.2L51.68,51.248V51.2h56.521
			h336.024l0.013-0.013H500.759 M500.759,48.353h-56.521c-0.09,0-0.18,0.004-0.268,0.013h-335.77H51.68
			c-1.565,0-2.835,1.269-2.835,2.834c0,0.752,0.299,1.521,0.831,2.052l39.952,39.952l369.167,369.167
			c0.543,0.543,1.268,0.831,2.006,0.831c0.365,0,0.733-0.071,1.084-0.216c1.059-0.439,1.75-1.473,1.75-2.619v-56.569
			c0-0.752-0.299-1.473-0.83-2.004l-307.76-307.76H460.8c0.838,0,1.591-0.363,2.11-0.941l39.854-39.853
			c0.531-0.532,0.83-1.252,0.83-2.004C503.594,49.67,502.324,48.353,500.759,48.353L500.759,48.353z"/>
	</g>
</g>
</svg>
